<svg preserveAspectRatio="xMidYMid meet" data-bbox="15 34.69 481.99 442.62" xmlns="http://www.w3.org/2000/svg" viewBox="15 34.69 481.99 442.62" data-type="shape" role="img" aria-label="honest assessment" width="100%" height="100%" fill="#0c0054">
    <g>
        <path d="M312.96 306.11c-1.63 16.24 3.16 32.14 13.5 44.77 10.33 12.63 24.96 20.49 41.2 22.12 2.06.21 4.11.31 6.14.31 30.97 0 57.59-23.55 60.75-55.01 3.36-33.52-21.18-63.53-54.7-66.89s-63.53 21.18-66.89 54.7m109.65 11c-1.31 13.05-7.62 24.81-17.77 33.11s-22.93 12.15-35.98 10.84-24.81-7.62-33.11-17.77-12.15-22.93-10.84-35.98c2.54-25.28 23.93-44.2 48.82-44.2 1.63 0 3.28.08 4.94.25 26.92 2.69 46.64 26.81 43.94 53.75m67.67 95.56-49.05-51.03c8.76-11.91 14.22-25.99 15.73-41.09 2.23-22.22-4.33-43.99-18.47-61.28-11.06-13.52-25.73-23.02-42.22-27.6V85.77c0-3.31-2.69-6-6-6H313.1v-9.54c0-3.31-2.69-6-6-6h-32.09v-.22c0-16.17-13.15-29.32-29.32-29.32s-29.32 13.15-29.32 29.32v.22h-32.09c-3.31 0-6 2.69-6 6v9.54h-77.17c-3.31 0-6 2.69-6 6v32.79c-3.19-2.78-7.31-4.35-11.74-4.35-6.48 0-12.28 3.35-15.52 8.96l-50.42 87.32c-3.24 5.61-3.24 12.31 0 17.92s9.04 8.96 15.52 8.96H95.1v233.94c0 3.31 2.69 6 6 6h289.16c3.31 0 6-2.69 6-6v-78.54c3.98-1.11 7.87-2.51 11.65-4.21l40.41 58.41c3.88 5.6 9.89 9.24 16.92 10.23q1.935.27 3.87.27c6.39 0 12.67-2.2 17.66-6.29 6-4.91 9.71-12.16 10.17-19.91.43-7.08-1.94-13.69-6.66-18.6m-61.08-145.8c12.11 14.81 17.73 33.45 15.82 52.49s-11.12 36.19-25.93 48.3-33.45 17.73-52.48 15.82c-19.04-1.91-36.19-11.12-48.3-25.93s-17.73-33.45-15.82-52.49c3.7-36.88 34.91-64.48 71.21-64.48q3.57 0 7.2.36c19.04 1.91 36.19 11.12 48.3 25.93m-44.93-175.1v137.51c-.72-.09-1.44-.2-2.17-.27-1.52-.15-3.03-.26-4.54-.33V110.72c0-3.31-2.69-6-6-6H313.1V91.77zM313.1 132v-15.28h52.46v112.27c-38.82 3.82-70.97 34.6-75.01 74.87-2.23 22.22 4.33 43.99 18.47 61.28s34.17 28.04 56.39 30.27c.05 0 .1.01.15.01v44.94H125.82V237.38h7.97c6.48 0 12.28-3.35 15.52-8.96s3.24-12.31 0-17.92l-23.49-40.69v-53.09h52.46V132c0 3.31 2.69 6 6 6H307.1c3.31 0 6-2.69 6-6m-84.73-67.99c0-9.55 7.77-17.32 17.32-17.32s17.32 7.77 17.32 17.32v.22h-34.64zm-38.09 12.21H301.1V126H190.28zm-12 15.55v12.95h-58.46c-3.31 0-6 2.69-6 6v38.3l-6.71-11.62V91.77zM27.83 222.42c-1.12-1.94-1.12-3.99 0-5.92l50.42-87.32c1.12-1.94 2.89-2.96 5.13-2.96s4.01 1.02 5.13 2.96l50.42 87.32c1.12 1.94 1.12 3.99 0 5.92-1.12 1.94-2.89 2.96-5.13 2.96H32.96c-2.24 0-4.01-1.03-5.13-2.96m356.44 242.89H107.11V237.38h6.71v208.99c0 3.31 2.69 6 6 6h251.74c3.31 0 6-2.69 6-6v-50.61c2.25-.1 4.49-.29 6.71-.57zm42.42-88.37c2.36-1.93 4.59-3.99 6.71-6.13l4.46 4.64-15.6 12.75-3.72-5.38c2.81-1.78 5.53-3.74 8.15-5.88m58.27 53.62c-.26 4.35-2.42 8.58-5.79 11.33-3.36 2.75-7.95 4.03-12.26 3.42-3.68-.52-6.78-2.36-8.73-5.17l-29.09-42.04 17.09-13.98 35.43 36.86c2.39 2.47 3.58 5.88 3.35 9.58M89.38 152.41v33.75c0 3.31-2.69 6-6 6s-6-2.69-6-6v-33.75c0-3.31 2.69-6 6-6s6 2.68 6 6m0 50.78v.47c0 3.31-2.69 6-6 6s-6-2.69-6-6v-.47c0-3.31 2.69-6 6-6s6 2.68 6 6m77.18-39.84h37.82c3.31 0 6 2.69 6 6s-2.69 6-6 6h-31.82v35.04h35.04v-7.82c0-3.31 2.69-6 6-6s6 2.69 6 6v13.82c0 3.31-2.69 6-6 6h-47.04c-3.31 0-6-2.69-6-6v-47.04c0-3.31 2.69-6 6-6m83.06 13.53c0-3.31 2.69-6 6-6h69.2c3.31 0 6 2.69 6 6s-2.69 6-6 6h-69.2c-3.31 0-6-2.69-6-6m0 32c0-3.31 2.69-6 6-6h50.88c3.31 0 6 2.69 6 6s-2.69 6-6 6h-50.88c-3.31 0-6-2.69-6-6m0 53.66c0-3.31 2.69-6 6-6h34.54c3.31 0 6 2.69 6 6s-2.69 6-6 6h-34.54c-3.31 0-6-2.69-6-6m0 32c0-3.31 2.69-6 6-6h24.99c3.31 0 6 2.69 6 6s-2.69 6-6 6h-24.99c-3.31 0-6-2.69-6-6m0 53.67c0-3.31 2.69-6 6-6h29.25c3.31 0 6 2.69 6 6s-2.69 6-6 6h-29.25c-3.31 0-6-2.69-6-6m0 32c0-3.31 2.69-6 6-6h45.53c3.31 0 6 2.69 6 6s-2.69 6-6 6h-45.53c-3.31 0-6-2.69-6-6m-53.19-190.16 18.72-18.72c2.34-2.34 6.14-2.34 8.49 0a6 6 0 0 1 0 8.48l-22.97 22.96a5.987 5.987 0 0 1-8.48 0l-8.92-8.92c-2.34-2.34-2.34-6.14 0-8.49 2.34-2.34 6.14-2.34 8.49 0zm-35.87 110.81v-47.04c0-3.31 2.69-6 6-6h37.82c3.31 0 6 2.69 6 6s-2.69 6-6 6h-31.82v35.04h35.04v-7.82c0-3.31 2.69-6 6-6s6 2.69 6 6v13.82c0 3.31-2.69 6-6 6h-47.04c-3.31 0-6-2.68-6-6m63.07-45.07a6 6 0 0 1 0 8.48l-22.97 22.96a5.987 5.987 0 0 1-8.48 0l-8.92-8.92c-2.34-2.34-2.34-6.14 0-8.49 2.34-2.34 6.14-2.34 8.49 0l4.68 4.68 18.72-18.72a6.01 6.01 0 0 1 8.48.01m-4.02 115.73v13.82c0 3.31-2.69 6-6 6h-47.04c-3.31 0-6-2.69-6-6V338.3c0-3.31 2.69-6 6-6h37.82c3.31 0 6 2.69 6 6s-2.69 6-6 6h-31.82v35.04h35.04v-7.82c0-3.31 2.69-6 6-6s6 2.68 6 6m4.02-31.26a6 6 0 0 1 0 8.48l-22.97 22.96a5.99 5.99 0 0 1-8.48 0l-8.92-8.92c-2.34-2.34-2.34-6.14 0-8.49 2.34-2.34 6.14-2.34 8.49 0l4.68 4.68 18.72-18.72a6.01 6.01 0 0 1 8.48.01"></path>
    </g>
</svg>