<svg preserveAspectRatio="xMidYMid meet" data-bbox="3 3 66 66" viewBox="3 3 66 66" xmlns="http://www.w3.org/2000/svg" data-type="shape" role="img" aria-label="Lack of Trust" width="100%" height="100%" fill="#fff">
    <g>
        <path d="m47.707 57.707 10-10A1 1 0 0 0 58 47V25a1 1 0 0 0-.293-.707l-10-10A1 1 0 0 0 47 14H25a1 1 0 0 0-.707.293l-10 10A1 1 0 0 0 14 25v22a1 1 0 0 0 .293.707l10 10A1 1 0 0 0 25 58h22a1 1 0 0 0 .707-.293M25.414 56 16 46.586V25.414L25.414 16h21.172L56 25.414v21.172L46.586 56Z"></path>
        <path d="M36 19a6.007 6.007 0 0 0-6 6 19.3 19.3 0 0 0 .458 4.169l3.35 15.071a2.246 2.246 0 0 0 4.385 0l3.349-15.071A19.3 19.3 0 0 0 42 25a6.007 6.007 0 0 0-6-6m3.59 9.735-3.35 15.072a.256.256 0 0 1-.48 0l-3.35-15.072A17.3 17.3 0 0 1 32 25a4 4 0 0 1 8 0 17.3 17.3 0 0 1-.41 3.735"></path>
        <path d="M36 47a3 3 0 1 0 3 3 3.003 3.003 0 0 0-3-3m0 4a1 1 0 1 1 1-1 1 1 0 0 1-1 1"></path>
        <path d="M12.18 23H6a1 1 0 0 1-1-1V10a1 1 0 0 1 1-1h7.17a3 3 0 0 0 2.127-.883l2.82-2.82A1 1 0 0 1 18.83 5H26a1 1 0 0 1 1 1v6a1 1 0 0 0 2 0V6a3.003 3.003 0 0 0-3-3h-7.17a3 3 0 0 0-2.127.883l-2.82 2.82A1 1 0 0 1 13.17 7H6a3.003 3.003 0 0 0-3 3v12a3.003 3.003 0 0 0 3 3h6.18a1 1 0 0 0 0-2"></path>
        <path d="M64 38h-4a1 1 0 0 0 0 2h4a3.003 3.003 0 0 1 3 3v21a3.003 3.003 0 0 1-3 3H48a3.003 3.003 0 0 1-3-3v-4a1 1 0 0 0-2 0v4a5.006 5.006 0 0 0 5 5h16a5.006 5.006 0 0 0 5-5V43a5.006 5.006 0 0 0-5-5"></path>
        <path d="M63 45h-3a1 1 0 0 0 0 2h3a1 1 0 0 0 0-2"></path>
        <path d="M63 50h-6a1 1 0 0 0 0 2h6a1 1 0 0 0 0-2"></path>
        <path d="M63 55H53a1 1 0 0 0 0 2h10a1 1 0 0 0 0-2"></path>
        <path d="M63 60H49a1 1 0 0 0 0 2h14a1 1 0 0 0 0-2"></path>
    </g>
</svg>