<svg xmlns="http://www.w3.org/2000/svg" preserveAspectRatio="xMidYMid meet" data-bbox="16 41.371 480 429.258" viewBox="16 41.371 480 429.258" data-type="shape" role="img" aria-label="Event-driven architectures" width="100%" fill="#0c0054" height="100%">
    <g>
        <path fill-rule="evenodd" d="M328.093 178.234a64.974 64.974 0 0 0-56.576 96.929 6 6 0 0 0 .551.929 64.969 64.969 0 1 0 56.025-97.858m.025 117.188a52.24 52.24 0 0 1-42.218-21.487l41.375-30.318-1.081 9.771a6.387 6.387 0 0 0 12.7 1.4l2.68-24.217a6.39 6.39 0 0 0-5.4-7.021l-20.8-3.122a6.389 6.389 0 1 0-1.9 12.635l5.462.82-39.283 28.787a52.2 52.2 0 1 1 48.465 32.752M473.2 353.068l16.735 16.861a20.99 20.99 0 0 1-.109 29.627l-10.346 10.269a20.9 20.9 0 0 1-6.281 4.265v22.732c0 18.641-14.34 33.807-31.967 33.807H47.968C30.341 470.629 16 455.463 16 436.822V75.178c0-18.641 14.341-33.807 31.968-33.807h393.266c17.627 0 31.967 15.166 31.967 33.807v277.89zM47.968 54.147c-10.582 0-19.192 9.434-19.192 21.031v44.843h431.648V75.178c0-11.6-8.609-21.031-19.191-21.031zm393.265 403.706H47.968c-10.582 0-19.192-9.434-19.192-21.031V132.8h431.648v207.4l-11.3-11.383a21.04 21.04 0 0 0-19.267-5.7l-20.815-21.2a21 21 0 0 0-2.712-15.343A89.429 89.429 0 1 0 244.783 275.7L193 257.575a6.4 6.4 0 0 0-5.762.79l-62.521 43.594c-6.951 4.845.45 15.263 7.307 10.48l59.842-41.726 61.373 21.463a90 90 0 0 0 33.556 30.4v99.934h-7.775v-97.2a6.39 6.39 0 0 0-6.387-6.388H235.82a6.39 6.39 0 0 0-6.387 6.388v97.2h-7.778V309.3a6.386 6.386 0 0 0-6.386-6.387h-36.815c0-.416-6.387.688-6.387 6.386V422.51h-7.778v-81.517c1.254-1.254-2.511-6.388-6.387-6.388h-36.816a6.387 6.387 0 0 0-6.386 6.387v81.518H98.693V208.537a6.388 6.388 0 1 0-12.775-.08v220.454a6.377 6.377 0 0 0 6.376 6.377h266.488a6.388 6.388 0 1 0 0-12.776h-22.394v-90.273a90.1 90.1 0 0 0 29.07-7.76 20.78 20.78 0 0 0 17.139 3.866l20.831 21.22a21.12 21.12 0 0 0 5.615 19.034l40.812 41.116a20.8 20.8 0 0 0 10.57 5.727v21.38c0 11.6-8.61 21.031-19.192 21.031m-31.177-119.775 8.406-8.343-16.055-16.357-8.407 8.344zm-46.465-26.891A76.9 76.9 0 0 1 328 319.971a76.1 76.1 0 0 1-31.535-6.848c-27.649-16.625-45.038-35.273-45.038-69.861A76.711 76.711 0 1 1 393.2 283.717a6.47 6.47 0 0 0 1.153 8.141 8.243 8.243 0 0 1-.042 11.555l-10.345 10.269a8.2 8.2 0 0 1-11.563-.04c-2.784-2.737-4.818-4.552-8.81-2.455zM299.575 422.51h24.039v-89.985A88.7 88.7 0 0 1 299.575 328zm-57.368 0h24.039V331.7h-24.039zm-57.366 0h24.038V315.691h-24.038zm-57.367 0h24.039v-75.129h-24.039zm353.353-32.022a8.25 8.25 0 0 0 .042-11.56l-40.811-41.115a8.237 8.237 0 0 0-11.558-.043l-10.347 10.27a8.25 8.25 0 0 0-.044 11.56l40.813 41.115a8.22 8.22 0 0 0 11.559.043zM178.442 83.376c-8.434 0-8.437 12.775 0 12.775h237.84a6.388 6.388 0 0 0 0-12.776zm-38.775-.013a6.467 6.467 0 0 0-6.393 6.4 6.394 6.394 0 1 0 6.393-6.4m-39.725 6.394a6.394 6.394 0 1 0 6.393-6.394 6.39 6.39 0 0 0-6.393 6.394m-33.333 0A6.394 6.394 0 1 0 73 83.363a6.387 6.387 0 0 0-6.391 6.394"/>
    </g>
</svg>